<svg viewBox="0 0 1200 675" xmlns="http://www.w3.org/2000/svg" role="img" aria-label="Two curves showing mean and median percent English in the Melon Top 100 from 2000 to 2023, diverging slowly and then spiking sharply upward at the end">
  <defs>
    <style>
      .bg       { fill: #F7F3EE; }
      .area     { fill: rgba(42,107,107,0.18); }
      .grid     { stroke: #E8E2D9; stroke-width: 1; fill: none; }
      .mean     { stroke: #2A6B6B; stroke-width: 4.2; fill: none; stroke-linecap: round; stroke-linejoin: round; }
      .median   { stroke: #1A4F4F; stroke-width: 3.2; fill: none; stroke-linecap: round; stroke-linejoin: round; stroke-dasharray: 1 9; }
      .dot-mean { fill: #2A6B6B; }
      .dot-med  { fill: #1A4F4F; }
      .axis     { stroke: #1A1714; stroke-width: 1.4; fill: none; }
    </style>
  </defs>

  <rect class="bg" width="1200" height="675"/>

  <!-- Subtle horizontal grid (no text) -->
  <g>
    <line class="grid" x1="90" y1="424" x2="1110" y2="424"/>
    <line class="grid" x1="90" y1="259" x2="1110" y2="259"/>
    <line class="grid" x1="90" y1="93" x2="1110" y2="93"/>
  </g>

  <!-- Baseline and left axis -->
  <line class="axis" x1="90" y1="590" x2="1110" y2="590"/>
  <line class="axis" x1="90" y1="60" x2="90" y2="590"/>

  <!-- Area between mean and median -->
  <path class="area" d="M 90.0,485.7 C 97.4,481.8 119.6,467.2 134.3,462.5 C 149.1,457.8 163.9,456.9 178.7,457.5 C 193.5,458.1 208.3,472.7 223.0,465.8 C 237.8,458.9 252.6,424.1 267.4,416.1 C 282.2,408.1 297.0,412.2 311.7,417.8 C 326.5,423.3 341.3,442.6 356.1,449.2 C 370.9,455.8 385.7,468.5 400.4,457.5 C 415.2,446.5 430.0,403.4 444.8,383.0 C 459.6,362.5 474.3,341.3 489.1,334.9 C 503.9,328.6 518.7,338.8 533.5,344.9 C 548.3,350.9 563.0,373.6 577.8,371.4 C 592.6,369.2 607.4,330.2 622.2,331.6 C 637.0,333.0 651.7,378.0 666.5,379.7 C 681.3,381.3 696.1,352.9 710.9,341.6 C 725.7,330.2 740.4,313.1 755.2,311.8 C 770.0,310.4 784.8,326.9 799.6,333.3 C 814.3,339.6 829.1,347.6 843.9,349.8 C 858.7,352.1 873.5,344.0 888.3,346.5 C 903.0,349.0 917.8,362.5 932.6,364.8 C 947.4,367.0 962.2,358.4 977.0,359.8 C 991.7,361.2 1006.5,392.6 1021.3,373.0 C 1036.1,353.4 1050.9,288.8 1065.7,242.2 C 1080.4,195.5 1102.6,118.0 1110.0,93.1 L 1110.0,275.3 C 1102.6,322.2 1080.4,514.6 1065.7,556.9 C 1050.9,599.1 1036.1,534.2 1021.3,528.7 C 1006.5,523.2 991.7,526.0 977.0,523.8 C 962.2,521.5 947.4,532.6 932.6,515.5 C 917.8,498.4 903.0,433.5 888.3,421.1 C 873.5,408.6 858.7,433.5 843.9,440.9 C 829.1,448.4 814.3,454.7 799.6,465.8 C 784.8,476.8 770.0,498.9 755.2,507.2 C 740.4,515.5 725.7,514.1 710.9,515.5 C 696.1,516.8 681.3,518.2 666.5,515.5 C 651.7,512.7 637.0,492.8 622.2,498.9 C 607.4,505.0 592.6,545.0 577.8,551.9 C 563.0,558.8 548.3,546.4 533.5,540.3 C 518.7,534.2 503.9,510.8 489.1,515.5 C 474.3,520.2 459.6,556.0 444.8,568.5 C 430.0,580.9 415.2,586.4 400.4,590.0 C 385.7,593.6 370.9,590.0 356.1,590.0 C 341.3,590.0 326.5,590.0 311.7,590.0 C 297.0,590.0 282.2,590.0 267.4,590.0 C 252.6,590.0 237.8,590.0 223.0,590.0 C 208.3,590.0 193.5,590.0 178.7,590.0 C 163.9,590.0 149.1,590.0 134.3,590.0 C 119.6,590.0 97.4,590.0 90.0,590.0 Z"/>

  <!-- Median line (dashed, teal-deep) -->
  <path class="median" d="M 90.0,590.0 C 97.4,590.0 119.6,590.0 134.3,590.0 C 149.1,590.0 163.9,590.0 178.7,590.0 C 193.5,590.0 208.3,590.0 223.0,590.0 C 237.8,590.0 252.6,590.0 267.4,590.0 C 282.2,590.0 297.0,590.0 311.7,590.0 C 326.5,590.0 341.3,590.0 356.1,590.0 C 370.9,590.0 385.7,593.6 400.4,590.0 C 415.2,586.4 430.0,580.9 444.8,568.5 C 459.6,556.0 474.3,520.2 489.1,515.5 C 503.9,510.8 518.7,534.2 533.5,540.3 C 548.3,546.4 563.0,558.8 577.8,551.9 C 592.6,545.0 607.4,505.0 622.2,498.9 C 637.0,492.8 651.7,512.7 666.5,515.5 C 681.3,518.2 696.1,516.8 710.9,515.5 C 725.7,514.1 740.4,515.5 755.2,507.2 C 770.0,498.9 784.8,476.8 799.6,465.8 C 814.3,454.7 829.1,448.4 843.9,440.9 C 858.7,433.5 873.5,408.6 888.3,421.1 C 903.0,433.5 917.8,498.4 932.6,515.5 C 947.4,532.6 962.2,521.5 977.0,523.8 C 991.7,526.0 1006.5,523.2 1021.3,528.7 C 1036.1,534.2 1050.9,599.1 1065.7,556.9 C 1080.4,514.6 1102.6,322.2 1110.0,275.3"/>

  <!-- Mean line (solid, teal) -->
  <path class="mean" d="M 90.0,485.7 C 97.4,481.8 119.6,467.2 134.3,462.5 C 149.1,457.8 163.9,456.9 178.7,457.5 C 193.5,458.1 208.3,472.7 223.0,465.8 C 237.8,458.9 252.6,424.1 267.4,416.1 C 282.2,408.1 297.0,412.2 311.7,417.8 C 326.5,423.3 341.3,442.6 356.1,449.2 C 370.9,455.8 385.7,468.5 400.4,457.5 C 415.2,446.5 430.0,403.4 444.8,383.0 C 459.6,362.5 474.3,341.3 489.1,334.9 C 503.9,328.6 518.7,338.8 533.5,344.9 C 548.3,350.9 563.0,373.6 577.8,371.4 C 592.6,369.2 607.4,330.2 622.2,331.6 C 637.0,333.0 651.7,378.0 666.5,379.7 C 681.3,381.3 696.1,352.9 710.9,341.6 C 725.7,330.2 740.4,313.1 755.2,311.8 C 770.0,310.4 784.8,326.9 799.6,333.3 C 814.3,339.6 829.1,347.6 843.9,349.8 C 858.7,352.1 873.5,344.0 888.3,346.5 C 903.0,349.0 917.8,362.5 932.6,364.8 C 947.4,367.0 962.2,358.4 977.0,359.8 C 991.7,361.2 1006.5,392.6 1021.3,373.0 C 1036.1,353.4 1050.9,288.8 1065.7,242.2 C 1080.4,195.5 1102.6,118.0 1110.0,93.1"/>

  <!-- Dots -->
    <circle class="dot-med"  cx="90.0" cy="590.0" r="4"/>
    <circle class="dot-med"  cx="134.3" cy="590.0" r="4"/>
    <circle class="dot-med"  cx="178.7" cy="590.0" r="4"/>
    <circle class="dot-med"  cx="223.0" cy="590.0" r="4"/>
    <circle class="dot-med"  cx="267.4" cy="590.0" r="4"/>
    <circle class="dot-med"  cx="311.7" cy="590.0" r="4"/>
    <circle class="dot-med"  cx="356.1" cy="590.0" r="4"/>
    <circle class="dot-med"  cx="400.4" cy="590.0" r="4"/>
    <circle class="dot-med"  cx="444.8" cy="568.5" r="4"/>
    <circle class="dot-med"  cx="489.1" cy="515.5" r="4"/>
    <circle class="dot-med"  cx="533.5" cy="540.3" r="4"/>
    <circle class="dot-med"  cx="577.8" cy="551.9" r="4"/>
    <circle class="dot-med"  cx="622.2" cy="498.9" r="4"/>
    <circle class="dot-med"  cx="666.5" cy="515.5" r="4"/>
    <circle class="dot-med"  cx="710.9" cy="515.5" r="4"/>
    <circle class="dot-med"  cx="755.2" cy="507.2" r="4"/>
    <circle class="dot-med"  cx="799.6" cy="465.8" r="4"/>
    <circle class="dot-med"  cx="843.9" cy="440.9" r="4"/>
    <circle class="dot-med"  cx="888.3" cy="421.1" r="4"/>
    <circle class="dot-med"  cx="932.6" cy="515.5" r="4"/>
    <circle class="dot-med"  cx="977.0" cy="523.8" r="4"/>
    <circle class="dot-med"  cx="1021.3" cy="528.7" r="4"/>
    <circle class="dot-med"  cx="1065.7" cy="556.9" r="4"/>
    <circle class="dot-med"  cx="1110.0" cy="275.3" r="4"/>
    <circle class="dot-mean" cx="90.0" cy="485.7" r="5"/>
    <circle class="dot-mean" cx="134.3" cy="462.5" r="5"/>
    <circle class="dot-mean" cx="178.7" cy="457.5" r="5"/>
    <circle class="dot-mean" cx="223.0" cy="465.8" r="5"/>
    <circle class="dot-mean" cx="267.4" cy="416.1" r="5"/>
    <circle class="dot-mean" cx="311.7" cy="417.8" r="5"/>
    <circle class="dot-mean" cx="356.1" cy="449.2" r="5"/>
    <circle class="dot-mean" cx="400.4" cy="457.5" r="5"/>
    <circle class="dot-mean" cx="444.8" cy="383.0" r="5"/>
    <circle class="dot-mean" cx="489.1" cy="334.9" r="5"/>
    <circle class="dot-mean" cx="533.5" cy="344.9" r="5"/>
    <circle class="dot-mean" cx="577.8" cy="371.4" r="5"/>
    <circle class="dot-mean" cx="622.2" cy="331.6" r="5"/>
    <circle class="dot-mean" cx="666.5" cy="379.7" r="5"/>
    <circle class="dot-mean" cx="710.9" cy="341.6" r="5"/>
    <circle class="dot-mean" cx="755.2" cy="311.8" r="5"/>
    <circle class="dot-mean" cx="799.6" cy="333.3" r="5"/>
    <circle class="dot-mean" cx="843.9" cy="349.8" r="5"/>
    <circle class="dot-mean" cx="888.3" cy="346.5" r="5"/>
    <circle class="dot-mean" cx="932.6" cy="364.8" r="5"/>
    <circle class="dot-mean" cx="977.0" cy="359.8" r="5"/>
    <circle class="dot-mean" cx="1021.3" cy="373.0" r="5"/>
    <circle class="dot-mean" cx="1065.7" cy="242.2" r="5"/>
    <circle class="dot-mean" cx="1110.0" cy="93.1" r="5"/>
</svg>
