<svg viewBox="0 0 1200 675" xmlns="http://www.w3.org/2000/svg" preserveAspectRatio="xMidYMid meet" aria-label="UMAP-style scatter of bookmark clusters: dense teal dot groups representing topic clusters with sparse noise dots scattered between them">
  <rect width="1200" height="675" fill="#F7F3EE"/>
  <ellipse cx="380" cy="280" rx="170" ry="140" fill="none" stroke="#1A4F4F" stroke-width="1.2" stroke-dasharray="4 6" opacity="0.4"/>
  <ellipse cx="780" cy="350" rx="115" ry="95" fill="none" stroke="#2A6B6B" stroke-width="1.2" stroke-dasharray="4 6" opacity="0.4"/>
  <ellipse cx="900" cy="180" rx="95" ry="80" fill="none" stroke="#2A6B6B" stroke-width="1.2" stroke-dasharray="4 6" opacity="0.4"/>
  <circle cx="350.2" cy="251.9" r="3.7" fill="#1A4F4F" opacity="0.70"/>
  <circle cx="379.4" cy="274.2" r="4.8" fill="#1A4F4F" opacity="0.70"/>
  <circle cx="421.0" cy="254.1" r="3.3" fill="#1A4F4F" opacity="0.70"/>
  <circle cx="386.3" cy="304.6" r="4.4" fill="#1A4F4F" opacity="0.70"/>
  <circle cx="406.5" cy="283.5" r="4.5" fill="#1A4F4F" opacity="0.70"/>
  <circle cx="394.9" cy="342.4" r="4.6" fill="#1A4F4F" opacity="0.70"/>
  <circle cx="418.8" cy="202.2" r="4.8" fill="#1A4F4F" opacity="0.70"/>
  <circle cx="377.7" cy="282.9" r="3.6" fill="#1A4F4F" opacity="0.70"/>
  <circle cx="367.1" cy="282.8" r="3.4" fill="#1A4F4F" opacity="0.70"/>
  <circle cx="392.8" cy="265.7" r="4.6" fill="#1A4F4F" opacity="0.70"/>
  <circle cx="376.7" cy="286.8" r="5.4" fill="#1A4F4F" opacity="0.70"/>
  <circle cx="432.2" cy="240.7" r="4.5" fill="#1A4F4F" opacity="0.70"/>
  <circle cx="338.8" cy="339.3" r="4.5" fill="#1A4F4F" opacity="0.70"/>
  <circle cx="402.3" cy="339.8" r="3.3" fill="#1A4F4F" opacity="0.70"/>
  <circle cx="379.2" cy="275.4" r="3.7" fill="#1A4F4F" opacity="0.70"/>
  <circle cx="398.7" cy="290.8" r="3.8" fill="#1A4F4F" opacity="0.70"/>
  <circle cx="404.6" cy="302.1" r="3.7" fill="#1A4F4F" opacity="0.70"/>
  <circle cx="375.5" cy="313.2" r="5.4" fill="#1A4F4F" opacity="0.70"/>
  <circle cx="396.7" cy="297.6" r="4.9" fill="#1A4F4F" opacity="0.70"/>
  <circle cx="368.2" cy="264.7" r="4.1" fill="#1A4F4F" opacity="0.70"/>
  <circle cx="332.3" cy="282.5" r="4.8" fill="#1A4F4F" opacity="0.70"/>
  <circle cx="348.2" cy="317.9" r="5.0" fill="#1A4F4F" opacity="0.70"/>
  <circle cx="386.6" cy="319.1" r="3.8" fill="#1A4F4F" opacity="0.70"/>
  <circle cx="382.5" cy="287.8" r="5.4" fill="#1A4F4F" opacity="0.70"/>
  <circle cx="355.8" cy="298.7" r="4.1" fill="#1A4F4F" opacity="0.70"/>
  <circle cx="447.8" cy="248.3" r="4.3" fill="#1A4F4F" opacity="0.70"/>
  <circle cx="379.9" cy="281.3" r="3.8" fill="#1A4F4F" opacity="0.70"/>
  <circle cx="314.9" cy="249.9" r="5.3" fill="#1A4F4F" opacity="0.70"/>
  <circle cx="348.5" cy="298.1" r="4.4" fill="#1A4F4F" opacity="0.70"/>
  <circle cx="497.8" cy="339.5" r="3.3" fill="#1A4F4F" opacity="0.70"/>
  <circle cx="324.0" cy="243.8" r="4.2" fill="#1A4F4F" opacity="0.70"/>
  <circle cx="311.1" cy="257.2" r="4.1" fill="#1A4F4F" opacity="0.70"/>
  <circle cx="240.0" cy="282.7" r="5.2" fill="#1A4F4F" opacity="0.70"/>
  <circle cx="351.6" cy="278.4" r="4.9" fill="#1A4F4F" opacity="0.70"/>
  <circle cx="398.8" cy="312.2" r="4.7" fill="#1A4F4F" opacity="0.70"/>
  <circle cx="371.8" cy="274.6" r="4.2" fill="#1A4F4F" opacity="0.70"/>
  <circle cx="269.7" cy="305.9" r="3.8" fill="#1A4F4F" opacity="0.70"/>
  <circle cx="414.4" cy="280.1" r="3.6" fill="#1A4F4F" opacity="0.70"/>
  <circle cx="409.0" cy="266.1" r="4.7" fill="#1A4F4F" opacity="0.70"/>
  <circle cx="407.9" cy="297.9" r="3.6" fill="#1A4F4F" opacity="0.70"/>
  <circle cx="372.2" cy="357.5" r="4.4" fill="#1A4F4F" opacity="0.70"/>
  <circle cx="355.0" cy="279.9" r="3.9" fill="#1A4F4F" opacity="0.70"/>
  <circle cx="488.2" cy="290.5" r="5.1" fill="#1A4F4F" opacity="0.70"/>
  <circle cx="398.4" cy="241.7" r="3.3" fill="#1A4F4F" opacity="0.70"/>
  <circle cx="396.9" cy="267.2" r="4.3" fill="#1A4F4F" opacity="0.70"/>
  <circle cx="372.6" cy="277.3" r="4.9" fill="#1A4F4F" opacity="0.70"/>
  <circle cx="384.6" cy="243.9" r="4.5" fill="#1A4F4F" opacity="0.70"/>
  <circle cx="375.4" cy="317.7" r="5.2" fill="#1A4F4F" opacity="0.70"/>
  <circle cx="364.6" cy="286.3" r="4.9" fill="#1A4F4F" opacity="0.70"/>
  <circle cx="401.5" cy="333.3" r="3.9" fill="#1A4F4F" opacity="0.70"/>
  <circle cx="342.9" cy="280.9" r="4.4" fill="#1A4F4F" opacity="0.70"/>
  <circle cx="343.0" cy="252.4" r="3.7" fill="#1A4F4F" opacity="0.70"/>
  <circle cx="399.0" cy="255.8" r="3.7" fill="#1A4F4F" opacity="0.70"/>
  <circle cx="359.8" cy="272.4" r="4.7" fill="#1A4F4F" opacity="0.70"/>
  <circle cx="392.7" cy="355.2" r="3.4" fill="#1A4F4F" opacity="0.70"/>
  <circle cx="375.1" cy="228.9" r="4.7" fill="#1A4F4F" opacity="0.70"/>
  <circle cx="400.7" cy="351.1" r="4.5" fill="#1A4F4F" opacity="0.70"/>
  <circle cx="279.8" cy="293.7" r="5.0" fill="#1A4F4F" opacity="0.70"/>
  <circle cx="383.4" cy="272.9" r="4.2" fill="#1A4F4F" opacity="0.70"/>
  <circle cx="358.1" cy="289.0" r="4.3" fill="#1A4F4F" opacity="0.70"/>
  <circle cx="390.3" cy="341.1" r="3.4" fill="#1A4F4F" opacity="0.70"/>
  <circle cx="494.6" cy="216.8" r="4.0" fill="#1A4F4F" opacity="0.70"/>
  <circle cx="380.2" cy="279.8" r="4.2" fill="#1A4F4F" opacity="0.70"/>
  <circle cx="346.3" cy="294.1" r="3.8" fill="#1A4F4F" opacity="0.70"/>
  <circle cx="380.1" cy="324.3" r="5.2" fill="#1A4F4F" opacity="0.70"/>
  <circle cx="408.0" cy="287.2" r="3.3" fill="#1A4F4F" opacity="0.70"/>
  <circle cx="459.8" cy="279.7" r="5.3" fill="#1A4F4F" opacity="0.70"/>
  <circle cx="302.8" cy="365.0" r="3.6" fill="#1A4F4F" opacity="0.70"/>
  <circle cx="366.6" cy="281.0" r="3.3" fill="#1A4F4F" opacity="0.70"/>
  <circle cx="338.0" cy="311.4" r="5.5" fill="#1A4F4F" opacity="0.70"/>
  <circle cx="378.7" cy="290.8" r="4.2" fill="#1A4F4F" opacity="0.70"/>
  <circle cx="319.0" cy="293.2" r="5.5" fill="#1A4F4F" opacity="0.70"/>
  <circle cx="386.3" cy="281.8" r="3.9" fill="#1A4F4F" opacity="0.70"/>
  <circle cx="347.2" cy="285.1" r="4.5" fill="#1A4F4F" opacity="0.70"/>
  <circle cx="380.2" cy="280.1" r="4.5" fill="#1A4F4F" opacity="0.70"/>
  <circle cx="400.2" cy="280.3" r="5.2" fill="#1A4F4F" opacity="0.70"/>
  <circle cx="392.8" cy="295.3" r="3.6" fill="#1A4F4F" opacity="0.70"/>
  <circle cx="384.8" cy="282.6" r="4.8" fill="#1A4F4F" opacity="0.70"/>
  <circle cx="388.4" cy="350.5" r="3.8" fill="#1A4F4F" opacity="0.70"/>
  <circle cx="309.9" cy="242.8" r="4.6" fill="#1A4F4F" opacity="0.70"/>
  <circle cx="434.1" cy="256.4" r="5.3" fill="#1A4F4F" opacity="0.70"/>
  <circle cx="369.8" cy="253.0" r="4.8" fill="#1A4F4F" opacity="0.70"/>
  <circle cx="375.1" cy="225.4" r="3.9" fill="#1A4F4F" opacity="0.70"/>
  <circle cx="358.4" cy="318.4" r="4.9" fill="#1A4F4F" opacity="0.70"/>
  <circle cx="254.3" cy="231.6" r="5.5" fill="#1A4F4F" opacity="0.70"/>
  <circle cx="301.0" cy="188.7" r="3.7" fill="#1A4F4F" opacity="0.70"/>
  <circle cx="275.5" cy="219.4" r="5.2" fill="#1A4F4F" opacity="0.70"/>
  <circle cx="294.4" cy="167.1" r="3.6" fill="#1A4F4F" opacity="0.70"/>
  <circle cx="275.0" cy="187.2" r="5.5" fill="#1A4F4F" opacity="0.70"/>
  <circle cx="298.8" cy="202.8" r="3.2" fill="#1A4F4F" opacity="0.70"/>
  <circle cx="275.4" cy="188.6" r="5.4" fill="#1A4F4F" opacity="0.70"/>
  <circle cx="303.5" cy="202.0" r="3.5" fill="#1A4F4F" opacity="0.70"/>
  <circle cx="265.2" cy="170.1" r="4.6" fill="#1A4F4F" opacity="0.70"/>
  <circle cx="281.3" cy="185.4" r="3.7" fill="#1A4F4F" opacity="0.70"/>
  <circle cx="281.7" cy="181.6" r="5.3" fill="#1A4F4F" opacity="0.70"/>
  <circle cx="296.5" cy="160.1" r="3.4" fill="#1A4F4F" opacity="0.70"/>
  <circle cx="280.3" cy="179.9" r="5.0" fill="#1A4F4F" opacity="0.70"/>
  <circle cx="278.6" cy="178.7" r="3.8" fill="#1A4F4F" opacity="0.70"/>
  <circle cx="281.4" cy="201.0" r="3.2" fill="#1A4F4F" opacity="0.70"/>
  <circle cx="272.4" cy="176.8" r="5.2" fill="#1A4F4F" opacity="0.70"/>
  <circle cx="242.2" cy="201.7" r="4.5" fill="#1A4F4F" opacity="0.70"/>
  <circle cx="271.9" cy="171.0" r="3.5" fill="#1A4F4F" opacity="0.70"/>
  <circle cx="267.0" cy="208.2" r="5.2" fill="#1A4F4F" opacity="0.70"/>
  <circle cx="258.5" cy="193.2" r="3.7" fill="#1A4F4F" opacity="0.70"/>
  <circle cx="280.1" cy="209.2" r="5.2" fill="#1A4F4F" opacity="0.70"/>
  <circle cx="258.0" cy="192.2" r="4.6" fill="#1A4F4F" opacity="0.70"/>
  <circle cx="305.7" cy="211.4" r="5.4" fill="#1A4F4F" opacity="0.70"/>
  <circle cx="272.0" cy="196.6" r="5.2" fill="#1A4F4F" opacity="0.70"/>
  <circle cx="278.1" cy="179.8" r="5.3" fill="#1A4F4F" opacity="0.70"/>
  <circle cx="272.7" cy="197.8" r="5.2" fill="#1A4F4F" opacity="0.70"/>
  <circle cx="278.3" cy="183.6" r="3.4" fill="#1A4F4F" opacity="0.70"/>
  <circle cx="310.6" cy="153.6" r="5.2" fill="#1A4F4F" opacity="0.70"/>
  <circle cx="282.0" cy="189.3" r="3.9" fill="#1A4F4F" opacity="0.70"/>
  <circle cx="272.8" cy="200.5" r="3.7" fill="#1A4F4F" opacity="0.70"/>
  <circle cx="287.8" cy="181.0" r="5.2" fill="#1A4F4F" opacity="0.70"/>
  <circle cx="300.6" cy="176.4" r="3.8" fill="#1A4F4F" opacity="0.70"/>
  <circle cx="316.2" cy="217.1" r="4.4" fill="#1A4F4F" opacity="0.70"/>
  <circle cx="318.8" cy="167.0" r="3.5" fill="#1A4F4F" opacity="0.70"/>
  <circle cx="307.5" cy="175.7" r="3.8" fill="#1A4F4F" opacity="0.70"/>
  <circle cx="325.2" cy="210.5" r="4.2" fill="#1A4F4F" opacity="0.70"/>
  <circle cx="782.7" cy="365.5" r="4.4" fill="#2A6B6B" opacity="0.55"/>
  <circle cx="744.3" cy="374.4" r="4.5" fill="#2A6B6B" opacity="0.55"/>
  <circle cx="780.0" cy="349.6" r="5.3" fill="#2A6B6B" opacity="0.55"/>
  <circle cx="782.1" cy="350.4" r="4.9" fill="#2A6B6B" opacity="0.55"/>
  <circle cx="780.9" cy="363.4" r="3.4" fill="#2A6B6B" opacity="0.55"/>
  <circle cx="796.2" cy="371.1" r="4.0" fill="#2A6B6B" opacity="0.55"/>
  <circle cx="766.4" cy="374.9" r="3.9" fill="#2A6B6B" opacity="0.55"/>
  <circle cx="797.9" cy="314.3" r="4.1" fill="#2A6B6B" opacity="0.55"/>
  <circle cx="784.6" cy="347.5" r="4.2" fill="#2A6B6B" opacity="0.55"/>
  <circle cx="797.6" cy="344.6" r="4.8" fill="#2A6B6B" opacity="0.55"/>
  <circle cx="760.4" cy="360.7" r="4.5" fill="#2A6B6B" opacity="0.55"/>
  <circle cx="758.8" cy="350.0" r="3.9" fill="#2A6B6B" opacity="0.55"/>
  <circle cx="823.7" cy="334.0" r="4.3" fill="#2A6B6B" opacity="0.55"/>
  <circle cx="804.8" cy="342.7" r="3.7" fill="#2A6B6B" opacity="0.55"/>
  <circle cx="726.0" cy="357.1" r="3.6" fill="#2A6B6B" opacity="0.55"/>
  <circle cx="746.2" cy="334.5" r="4.4" fill="#2A6B6B" opacity="0.55"/>
  <circle cx="803.9" cy="370.5" r="4.9" fill="#2A6B6B" opacity="0.55"/>
  <circle cx="752.0" cy="308.7" r="3.7" fill="#2A6B6B" opacity="0.55"/>
  <circle cx="788.8" cy="370.7" r="4.3" fill="#2A6B6B" opacity="0.55"/>
  <circle cx="782.5" cy="347.3" r="3.4" fill="#2A6B6B" opacity="0.55"/>
  <circle cx="794.6" cy="343.2" r="4.8" fill="#2A6B6B" opacity="0.55"/>
  <circle cx="798.1" cy="349.5" r="3.8" fill="#2A6B6B" opacity="0.55"/>
  <circle cx="744.9" cy="309.3" r="5.0" fill="#2A6B6B" opacity="0.55"/>
  <circle cx="781.7" cy="351.1" r="4.2" fill="#2A6B6B" opacity="0.55"/>
  <circle cx="799.8" cy="380.6" r="3.3" fill="#2A6B6B" opacity="0.55"/>
  <circle cx="779.9" cy="340.7" r="5.2" fill="#2A6B6B" opacity="0.55"/>
  <circle cx="762.9" cy="353.7" r="5.5" fill="#2A6B6B" opacity="0.55"/>
  <circle cx="823.9" cy="373.4" r="5.4" fill="#2A6B6B" opacity="0.55"/>
  <circle cx="744.5" cy="372.4" r="4.4" fill="#2A6B6B" opacity="0.55"/>
  <circle cx="761.0" cy="376.6" r="4.5" fill="#2A6B6B" opacity="0.55"/>
  <circle cx="778.6" cy="350.8" r="3.8" fill="#2A6B6B" opacity="0.55"/>
  <circle cx="779.3" cy="316.7" r="4.7" fill="#2A6B6B" opacity="0.55"/>
  <circle cx="774.8" cy="390.7" r="3.8" fill="#2A6B6B" opacity="0.55"/>
  <circle cx="773.7" cy="347.4" r="3.9" fill="#2A6B6B" opacity="0.55"/>
  <circle cx="782.7" cy="334.6" r="3.5" fill="#2A6B6B" opacity="0.55"/>
  <circle cx="785.0" cy="383.0" r="4.8" fill="#2A6B6B" opacity="0.55"/>
  <circle cx="770.4" cy="323.4" r="4.4" fill="#2A6B6B" opacity="0.55"/>
  <circle cx="766.9" cy="356.0" r="3.7" fill="#2A6B6B" opacity="0.55"/>
  <circle cx="743.7" cy="365.5" r="4.8" fill="#2A6B6B" opacity="0.55"/>
  <circle cx="762.5" cy="367.2" r="5.0" fill="#2A6B6B" opacity="0.55"/>
  <circle cx="754.3" cy="368.7" r="4.9" fill="#2A6B6B" opacity="0.55"/>
  <circle cx="780.8" cy="349.2" r="5.4" fill="#2A6B6B" opacity="0.55"/>
  <circle cx="780.6" cy="349.7" r="4.6" fill="#2A6B6B" opacity="0.55"/>
  <circle cx="771.3" cy="313.7" r="3.7" fill="#2A6B6B" opacity="0.55"/>
  <circle cx="749.0" cy="360.3" r="4.8" fill="#2A6B6B" opacity="0.55"/>
  <circle cx="774.9" cy="352.7" r="3.6" fill="#2A6B6B" opacity="0.55"/>
  <circle cx="744.1" cy="355.8" r="3.3" fill="#2A6B6B" opacity="0.55"/>
  <circle cx="750.2" cy="368.2" r="4.5" fill="#2A6B6B" opacity="0.55"/>
  <circle cx="767.4" cy="348.3" r="4.3" fill="#2A6B6B" opacity="0.55"/>
  <circle cx="764.8" cy="346.1" r="4.1" fill="#2A6B6B" opacity="0.55"/>
  <circle cx="894.5" cy="162.4" r="4.1" fill="#2A6B6B" opacity="0.55"/>
  <circle cx="900.6" cy="145.4" r="5.1" fill="#2A6B6B" opacity="0.55"/>
  <circle cx="899.9" cy="184.0" r="4.4" fill="#2A6B6B" opacity="0.55"/>
  <circle cx="902.9" cy="180.0" r="4.0" fill="#2A6B6B" opacity="0.55"/>
  <circle cx="895.1" cy="174.7" r="4.9" fill="#2A6B6B" opacity="0.55"/>
  <circle cx="860.2" cy="190.2" r="3.7" fill="#2A6B6B" opacity="0.55"/>
  <circle cx="908.7" cy="180.9" r="4.7" fill="#2A6B6B" opacity="0.55"/>
  <circle cx="888.5" cy="176.2" r="3.7" fill="#2A6B6B" opacity="0.55"/>
  <circle cx="899.4" cy="178.6" r="4.6" fill="#2A6B6B" opacity="0.55"/>
  <circle cx="900.2" cy="193.9" r="3.5" fill="#2A6B6B" opacity="0.55"/>
  <circle cx="905.8" cy="170.2" r="3.3" fill="#2A6B6B" opacity="0.55"/>
  <circle cx="901.2" cy="177.8" r="4.8" fill="#2A6B6B" opacity="0.55"/>
  <circle cx="864.2" cy="187.6" r="3.4" fill="#2A6B6B" opacity="0.55"/>
  <circle cx="889.7" cy="159.4" r="4.6" fill="#2A6B6B" opacity="0.55"/>
  <circle cx="906.5" cy="183.8" r="4.6" fill="#2A6B6B" opacity="0.55"/>
  <circle cx="858.9" cy="149.3" r="5.5" fill="#2A6B6B" opacity="0.55"/>
  <circle cx="896.4" cy="193.7" r="4.1" fill="#2A6B6B" opacity="0.55"/>
  <circle cx="874.5" cy="179.3" r="4.0" fill="#2A6B6B" opacity="0.55"/>
  <circle cx="903.6" cy="176.1" r="5.4" fill="#2A6B6B" opacity="0.55"/>
  <circle cx="908.2" cy="187.4" r="5.1" fill="#2A6B6B" opacity="0.55"/>
  <circle cx="911.6" cy="213.3" r="5.4" fill="#2A6B6B" opacity="0.55"/>
  <circle cx="897.6" cy="194.7" r="5.1" fill="#2A6B6B" opacity="0.55"/>
  <circle cx="930.4" cy="185.8" r="4.9" fill="#2A6B6B" opacity="0.55"/>
  <circle cx="899.6" cy="182.5" r="5.2" fill="#2A6B6B" opacity="0.55"/>
  <circle cx="925.2" cy="144.3" r="3.8" fill="#2A6B6B" opacity="0.55"/>
  <circle cx="869.3" cy="185.4" r="4.6" fill="#2A6B6B" opacity="0.55"/>
  <circle cx="859.1" cy="210.6" r="3.6" fill="#2A6B6B" opacity="0.55"/>
  <circle cx="902.4" cy="187.9" r="5.0" fill="#2A6B6B" opacity="0.55"/>
  <circle cx="882.1" cy="202.1" r="3.8" fill="#2A6B6B" opacity="0.55"/>
  <circle cx="868.8" cy="178.4" r="5.4" fill="#2A6B6B" opacity="0.55"/>
  <circle cx="595.7" cy="497.9" r="4.9" fill="#2A6B6B" opacity="0.55"/>
  <circle cx="609.6" cy="520.0" r="4.7" fill="#2A6B6B" opacity="0.55"/>
  <circle cx="597.3" cy="500.1" r="3.7" fill="#2A6B6B" opacity="0.55"/>
  <circle cx="603.5" cy="507.5" r="3.9" fill="#2A6B6B" opacity="0.55"/>
  <circle cx="624.4" cy="511.2" r="4.2" fill="#2A6B6B" opacity="0.55"/>
  <circle cx="599.9" cy="496.1" r="4.0" fill="#2A6B6B" opacity="0.55"/>
  <circle cx="600.7" cy="501.8" r="3.5" fill="#2A6B6B" opacity="0.55"/>
  <circle cx="606.2" cy="513.3" r="3.5" fill="#2A6B6B" opacity="0.55"/>
  <circle cx="598.9" cy="499.8" r="3.7" fill="#2A6B6B" opacity="0.55"/>
  <circle cx="614.7" cy="498.8" r="4.9" fill="#2A6B6B" opacity="0.55"/>
  <circle cx="581.6" cy="502.2" r="3.4" fill="#2A6B6B" opacity="0.55"/>
  <circle cx="599.0" cy="497.8" r="3.7" fill="#2A6B6B" opacity="0.55"/>
  <circle cx="612.2" cy="521.0" r="3.8" fill="#2A6B6B" opacity="0.55"/>
  <circle cx="602.5" cy="499.7" r="4.5" fill="#2A6B6B" opacity="0.55"/>
  <circle cx="589.4" cy="474.7" r="4.3" fill="#2A6B6B" opacity="0.55"/>
  <circle cx="623.1" cy="480.5" r="4.5" fill="#2A6B6B" opacity="0.55"/>
  <circle cx="613.5" cy="497.9" r="3.3" fill="#2A6B6B" opacity="0.55"/>
  <circle cx="605.0" cy="498.4" r="4.3" fill="#2A6B6B" opacity="0.55"/>
  <circle cx="596.8" cy="505.4" r="4.6" fill="#2A6B6B" opacity="0.55"/>
  <circle cx="605.0" cy="501.4" r="3.5" fill="#2A6B6B" opacity="0.55"/>
  <circle cx="622.6" cy="507.7" r="3.5" fill="#2A6B6B" opacity="0.55"/>
  <circle cx="605.0" cy="455.2" r="4.6" fill="#2A6B6B" opacity="0.55"/>
  <circle cx="601.1" cy="496.6" r="4.2" fill="#2A6B6B" opacity="0.55"/>
  <circle cx="574.0" cy="508.0" r="5.2" fill="#2A6B6B" opacity="0.55"/>
  <circle cx="589.0" cy="500.6" r="4.6" fill="#2A6B6B" opacity="0.55"/>
  <circle cx="1017.9" cy="392.6" r="5.4" fill="#3D9090" opacity="0.55"/>
  <circle cx="1022.4" cy="427.2" r="3.6" fill="#3D9090" opacity="0.55"/>
  <circle cx="1036.6" cy="446.6" r="3.4" fill="#3D9090" opacity="0.28"/>
  <circle cx="987.8" cy="419.5" r="3.9" fill="#3D9090" opacity="0.55"/>
  <circle cx="1021.2" cy="428.6" r="4.8" fill="#3D9090" opacity="0.55"/>
  <circle cx="1030.7" cy="449.4" r="5.3" fill="#3D9090" opacity="0.55"/>
  <circle cx="1022.6" cy="411.1" r="4.6" fill="#3D9090" opacity="0.55"/>
  <circle cx="1007.2" cy="402.9" r="4.5" fill="#3D9090" opacity="0.55"/>
  <circle cx="1026.4" cy="427.2" r="5.3" fill="#3D9090" opacity="0.55"/>
  <circle cx="1026.3" cy="409.9" r="3.9" fill="#3D9090" opacity="0.55"/>
  <circle cx="1020.0" cy="414.5" r="4.5" fill="#3D9090" opacity="0.55"/>
  <circle cx="1013.4" cy="442.1" r="4.8" fill="#3D9090" opacity="0.55"/>
  <circle cx="1045.4" cy="412.0" r="4.4" fill="#3D9090" opacity="0.55"/>
  <circle cx="1013.7" cy="420.2" r="4.2" fill="#3D9090" opacity="0.55"/>
  <circle cx="1018.5" cy="422.6" r="3.8" fill="#3D9090" opacity="0.55"/>
  <circle cx="1059.1" cy="441.1" r="4.5" fill="#3D9090" opacity="0.55"/>
  <circle cx="1009.2" cy="422.9" r="5.5" fill="#3D9090" opacity="0.55"/>
  <circle cx="1020.4" cy="420.6" r="4.9" fill="#3D9090" opacity="0.55"/>
  <circle cx="1013.0" cy="421.1" r="4.7" fill="#3D9090" opacity="0.55"/>
  <circle cx="1032.1" cy="414.1" r="4.7" fill="#3D9090" opacity="0.55"/>
  <circle cx="989.7" cy="421.3" r="3.4" fill="#3D9090" opacity="0.28"/>
  <circle cx="1030.8" cy="407.2" r="5.2" fill="#3D9090" opacity="0.55"/>
  <circle cx="147.0" cy="519.0" r="4.8" fill="#3D9090" opacity="0.55"/>
  <circle cx="151.4" cy="528.2" r="4.5" fill="#3D9090" opacity="0.55"/>
  <circle cx="172.5" cy="497.1" r="3.9" fill="#3D9090" opacity="0.55"/>
  <circle cx="150.7" cy="515.0" r="4.4" fill="#3D9090" opacity="0.55"/>
  <circle cx="156.0" cy="500.2" r="4.7" fill="#3D9090" opacity="0.55"/>
  <circle cx="171.2" cy="502.4" r="4.0" fill="#3D9090" opacity="0.55"/>
  <circle cx="160.3" cy="494.4" r="4.6" fill="#3D9090" opacity="0.55"/>
  <circle cx="160.5" cy="493.9" r="5.3" fill="#3D9090" opacity="0.55"/>
  <circle cx="136.5" cy="507.7" r="4.8" fill="#3D9090" opacity="0.55"/>
  <circle cx="180.5" cy="515.7" r="3.8" fill="#3D9090" opacity="0.55"/>
  <circle cx="157.4" cy="496.8" r="4.5" fill="#3D9090" opacity="0.55"/>
  <circle cx="112.7" cy="487.1" r="5.3" fill="#3D9090" opacity="0.55"/>
  <circle cx="124.9" cy="506.9" r="3.5" fill="#3D9090" opacity="0.28"/>
  <circle cx="143.5" cy="523.2" r="4.4" fill="#3D9090" opacity="0.55"/>
  <circle cx="160.0" cy="500.3" r="5.1" fill="#3D9090" opacity="0.55"/>
  <circle cx="161.0" cy="499.9" r="4.1" fill="#3D9090" opacity="0.55"/>
  <circle cx="183.4" cy="490.0" r="4.4" fill="#3D9090" opacity="0.55"/>
  <circle cx="168.1" cy="493.9" r="5.0" fill="#3D9090" opacity="0.55"/>
  <circle cx="959.9" cy="555.5" r="5.3" fill="#3D9090" opacity="0.55"/>
  <circle cx="943.4" cy="559.8" r="3.9" fill="#3D9090" opacity="0.55"/>
  <circle cx="961.9" cy="565.6" r="5.5" fill="#3D9090" opacity="0.55"/>
  <circle cx="936.0" cy="560.7" r="4.0" fill="#3D9090" opacity="0.55"/>
  <circle cx="932.1" cy="555.3" r="4.4" fill="#3D9090" opacity="0.55"/>
  <circle cx="955.1" cy="558.9" r="4.8" fill="#3D9090" opacity="0.55"/>
  <circle cx="940.1" cy="556.3" r="3.7" fill="#3D9090" opacity="0.55"/>
  <circle cx="954.8" cy="536.9" r="4.8" fill="#3D9090" opacity="0.55"/>
  <circle cx="953.2" cy="553.9" r="4.1" fill="#3D9090" opacity="0.55"/>
  <circle cx="938.2" cy="544.8" r="4.3" fill="#3D9090" opacity="0.55"/>
  <circle cx="906.2" cy="551.9" r="4.4" fill="#3D9090" opacity="0.55"/>
  <circle cx="927.8" cy="549.0" r="4.2" fill="#3D9090" opacity="0.55"/>
  <circle cx="977.7" cy="563.5" r="4.3" fill="#3D9090" opacity="0.55"/>
  <circle cx="954.0" cy="577.8" r="3.6" fill="#3D9090" opacity="0.55"/>
  <circle cx="935.5" cy="562.2" r="5.4" fill="#3D9090" opacity="0.55"/>
  <circle cx="419.2" cy="452.2" r="3.0" fill="#3D9090" opacity="0.28"/>
  <circle cx="994.0" cy="547.1" r="3.3" fill="#3D9090" opacity="0.28"/>
  <circle cx="465.6" cy="228.4" r="3.1" fill="#3D9090" opacity="0.28"/>
  <circle cx="890.5" cy="559.1" r="2.2" fill="#3D9090" opacity="0.28"/>
  <circle cx="116.6" cy="415.5" r="3.4" fill="#3D9090" opacity="0.28"/>
  <circle cx="1157.1" cy="484.3" r="2.8" fill="#3D9090" opacity="0.28"/>
  <circle cx="150.3" cy="417.1" r="3.3" fill="#3D9090" opacity="0.28"/>
  <circle cx="536.9" cy="452.9" r="3.4" fill="#3D9090" opacity="0.28"/>
  <circle cx="91.5" cy="513.7" r="2.6" fill="#3D9090" opacity="0.28"/>
  <circle cx="459.8" cy="126.6" r="2.9" fill="#3D9090" opacity="0.28"/>
  <circle cx="673.8" cy="511.5" r="2.4" fill="#3D9090" opacity="0.28"/>
  <circle cx="128.4" cy="558.1" r="3.0" fill="#3D9090" opacity="0.28"/>
  <circle cx="309.7" cy="583.1" r="2.4" fill="#3D9090" opacity="0.28"/>
  <circle cx="556.5" cy="191.1" r="2.5" fill="#3D9090" opacity="0.28"/>
  <circle cx="50.5" cy="518.8" r="3.4" fill="#3D9090" opacity="0.28"/>
  <circle cx="798.9" cy="134.0" r="2.8" fill="#3D9090" opacity="0.28"/>
  <circle cx="427.0" cy="389.6" r="3.0" fill="#3D9090" opacity="0.28"/>
  <circle cx="515.2" cy="188.8" r="3.3" fill="#3D9090" opacity="0.28"/>
  <circle cx="263.1" cy="268.9" r="2.8" fill="#3D9090" opacity="0.28"/>
  <circle cx="305.7" cy="380.3" r="2.9" fill="#3D9090" opacity="0.28"/>
  <circle cx="1151.8" cy="215.7" r="3.5" fill="#3D9090" opacity="0.28"/>
  <circle cx="777.2" cy="203.3" r="2.9" fill="#3D9090" opacity="0.28"/>
  <circle cx="808.1" cy="483.1" r="2.3" fill="#3D9090" opacity="0.28"/>
  <circle cx="719.2" cy="335.6" r="3.4" fill="#3D9090" opacity="0.28"/>
  <circle cx="360.5" cy="515.3" r="3.0" fill="#3D9090" opacity="0.28"/>
  <circle cx="434.6" cy="418.8" r="3.0" fill="#3D9090" opacity="0.28"/>
  <circle cx="799.1" cy="469.0" r="3.1" fill="#3D9090" opacity="0.28"/>
  <circle cx="978.9" cy="413.8" r="3.4" fill="#3D9090" opacity="0.28"/>
  <circle cx="763.9" cy="223.8" r="2.8" fill="#3D9090" opacity="0.28"/>
  <circle cx="689.1" cy="475.8" r="2.3" fill="#3D9090" opacity="0.28"/>
  <circle cx="370.5" cy="484.8" r="2.4" fill="#3D9090" opacity="0.28"/>
  <circle cx="188.0" cy="360.9" r="3.5" fill="#3D9090" opacity="0.28"/>
  <circle cx="634.6" cy="583.5" r="3.3" fill="#3D9090" opacity="0.28"/>
  <circle cx="327.8" cy="530.7" r="2.8" fill="#3D9090" opacity="0.28"/>
  <circle cx="943.3" cy="484.2" r="2.6" fill="#3D9090" opacity="0.28"/>
  <circle cx="169.0" cy="612.9" r="2.4" fill="#3D9090" opacity="0.28"/>
  <circle cx="1122.5" cy="551.8" r="3.1" fill="#3D9090" opacity="0.28"/>
  <circle cx="1137.5" cy="615.5" r="3.2" fill="#3D9090" opacity="0.28"/>
  <circle cx="449.7" cy="510.5" r="2.2" fill="#3D9090" opacity="0.28"/>
  <circle cx="641.0" cy="310.6" r="3.1" fill="#3D9090" opacity="0.28"/>
  <circle cx="793.0" cy="387.8" r="3.3" fill="#3D9090" opacity="0.28"/>
  <circle cx="1093.1" cy="104.5" r="2.5" fill="#3D9090" opacity="0.28"/>
  <circle cx="68.0" cy="566.1" r="2.9" fill="#3D9090" opacity="0.28"/>
  <circle cx="1065.1" cy="171.7" r="2.3" fill="#3D9090" opacity="0.28"/>
  <circle cx="962.7" cy="581.1" r="2.6" fill="#3D9090" opacity="0.28"/>
  <circle cx="497.3" cy="123.2" r="3.4" fill="#3D9090" opacity="0.28"/>
  <circle cx="380.9" cy="333.1" r="2.3" fill="#3D9090" opacity="0.28"/>
  <circle cx="1033.7" cy="120.7" r="2.8" fill="#3D9090" opacity="0.28"/>
  <circle cx="790.9" cy="482.2" r="3.4" fill="#3D9090" opacity="0.28"/>
  <circle cx="509.4" cy="481.7" r="2.4" fill="#3D9090" opacity="0.28"/>
  <circle cx="504.7" cy="98.9" r="2.8" fill="#3D9090" opacity="0.28"/>
  <circle cx="497.1" cy="606.2" r="2.2" fill="#3D9090" opacity="0.28"/>
  <circle cx="455.0" cy="303.8" r="3.4" fill="#3D9090" opacity="0.28"/>
  <circle cx="998.1" cy="99.1" r="3.1" fill="#3D9090" opacity="0.28"/>
  <circle cx="649.8" cy="621.8" r="2.7" fill="#3D9090" opacity="0.28"/>
  <circle cx="485.9" cy="152.9" r="2.4" fill="#3D9090" opacity="0.28"/>
  <circle cx="989.8" cy="310.6" r="3.1" fill="#3D9090" opacity="0.28"/>
  <circle cx="758.7" cy="395.3" r="2.2" fill="#3D9090" opacity="0.28"/>
  <circle cx="921.2" cy="184.9" r="2.4" fill="#3D9090" opacity="0.28"/>
  <circle cx="672.3" cy="80.8" r="3.2" fill="#3D9090" opacity="0.28"/>
  <circle cx="272.0" cy="168.5" r="3.3" fill="#3D9090" opacity="0.28"/>
  <circle cx="408.0" cy="127.8" r="3.4" fill="#3D9090" opacity="0.28"/>
  <circle cx="43.2" cy="550.8" r="2.4" fill="#3D9090" opacity="0.28"/>
  <circle cx="185.6" cy="189.1" r="2.4" fill="#3D9090" opacity="0.28"/>
  <circle cx="780.4" cy="55.3" r="2.2" fill="#3D9090" opacity="0.28"/>
  <circle cx="924.8" cy="181.6" r="2.6" fill="#3D9090" opacity="0.28"/>
  <circle cx="235.2" cy="71.2" r="3.2" fill="#3D9090" opacity="0.28"/>
  <circle cx="629.2" cy="483.7" r="2.8" fill="#3D9090" opacity="0.28"/>
  <circle cx="911.4" cy="345.4" r="2.3" fill="#3D9090" opacity="0.28"/>
  <circle cx="604.3" cy="602.5" r="2.3" fill="#3D9090" opacity="0.28"/>
  <circle cx="917.2" cy="555.9" r="2.9" fill="#3D9090" opacity="0.28"/>
  <circle cx="553.0" cy="613.6" r="2.3" fill="#3D9090" opacity="0.28"/>
  <circle cx="576.5" cy="279.0" r="3.1" fill="#3D9090" opacity="0.28"/>
  <circle cx="589.1" cy="581.3" r="2.3" fill="#3D9090" opacity="0.28"/>
  <circle cx="130.5" cy="401.9" r="2.3" fill="#3D9090" opacity="0.28"/>
  <circle cx="348.0" cy="416.7" r="2.9" fill="#3D9090" opacity="0.28"/>
  <circle cx="404.2" cy="631.8" r="2.9" fill="#3D9090" opacity="0.28"/>
  <circle cx="548.2" cy="400.2" r="2.3" fill="#3D9090" opacity="0.28"/>
  <circle cx="826.0" cy="547.4" r="3.0" fill="#3D9090" opacity="0.28"/>
  <circle cx="901.2" cy="468.9" r="2.5" fill="#3D9090" opacity="0.28"/>
  <line x1="265.2" y1="170.1" x2="324.0" y2="243.8" stroke="#1A4F4F" stroke-width="0.7" opacity="0.2"/>
  <line x1="324.0" y1="243.8" x2="305.7" y2="211.4" stroke="#1A4F4F" stroke-width="0.7" opacity="0.2"/>
  <line x1="305.7" y1="211.4" x2="318.8" y2="167.0" stroke="#1A4F4F" stroke-width="0.7" opacity="0.2"/>
  <line x1="332.3" y1="282.5" x2="386.3" y2="304.6" stroke="#1A4F4F" stroke-width="0.7" opacity="0.2"/>
  <line x1="414.4" y1="280.1" x2="434.1" y2="256.4" stroke="#1A4F4F" stroke-width="0.7" opacity="0.2"/>
  <line x1="434.1" y1="256.4" x2="346.3" y2="294.1" stroke="#1A4F4F" stroke-width="0.7" opacity="0.2"/>
  <line x1="254.3" y1="231.6" x2="310.6" y2="153.6" stroke="#1A4F4F" stroke-width="0.7" opacity="0.2"/>
  <line x1="310.6" y1="153.6" x2="307.5" y2="175.7" stroke="#1A4F4F" stroke-width="0.7" opacity="0.2"/>
  <line x1="379.9" y1="281.3" x2="325.2" y2="210.5" stroke="#1A4F4F" stroke-width="0.7" opacity="0.2"/>
  <line x1="325.2" y1="210.5" x2="351.6" y2="278.4" stroke="#1A4F4F" stroke-width="0.7" opacity="0.2"/>
  <line x1="351.6" y1="278.4" x2="421.0" y2="254.1" stroke="#1A4F4F" stroke-width="0.7" opacity="0.2"/>
  <line x1="396.7" y1="297.6" x2="378.7" y2="290.8" stroke="#1A4F4F" stroke-width="0.7" opacity="0.2"/>
  <line x1="378.7" y1="290.8" x2="382.5" y2="287.8" stroke="#1A4F4F" stroke-width="0.7" opacity="0.2"/>
  <line x1="382.5" y1="287.8" x2="398.8" y2="312.2" stroke="#1A4F4F" stroke-width="0.7" opacity="0.2"/>
</svg>