<svg viewBox="0 0 1200 675" xmlns="http://www.w3.org/2000/svg" role="img" aria-label="Two nine-by-nine Sudoku grids side by side, each cell shaded by how much uncertainty it still holds; the left grid is a pale field of many-candidate cells with a few resolved dark squares, the right grid is almost entirely deep teal as the uncertainty has drained away toward the solution">
  <rect width="1200" height="675" fill="#F7F3EE"/>
  <!-- LEFT GRID: high entropy, mostly light cells -->
  <g>
    <rect x="50" y="77" width="58" height="58" fill="#2A6B6B" fill-opacity="0.18"/>
    <rect x="108" y="77" width="58" height="58" fill="#2A6B6B" fill-opacity="0.18"/>
    <rect x="166" y="77" width="58" height="58" fill="#2A6B6B" fill-opacity="0.18"/>
    <rect x="224" y="77" width="58" height="58" fill="#2A6B6B" fill-opacity="0.18"/>
    <rect x="282" y="77" width="58" height="58" fill="#2A6B6B" fill-opacity="0.18"/>
    <rect x="340" y="77" width="58" height="58" fill="#2A6B6B" fill-opacity="0.18"/>
    <rect x="398" y="77" width="58" height="58" fill="#2A6B6B" fill-opacity="0.55"/>
    <rect x="456" y="77" width="58" height="58" fill="#2A6B6B" fill-opacity="0.18"/>
    <rect x="514" y="77" width="58" height="58" fill="#2A6B6B" fill-opacity="0.55"/>
    <rect x="50" y="135" width="58" height="58" fill="#2A6B6B" fill-opacity="0.18"/>
    <rect x="108" y="135" width="58" height="58" fill="#2A6B6B" fill-opacity="0.18"/>
    <rect x="166" y="135" width="58" height="58" fill="#2A6B6B" fill-opacity="0.18"/>
    <rect x="224" y="135" width="58" height="58" fill="#2A6B6B" fill-opacity="0.18"/>
    <rect x="282" y="135" width="58" height="58" fill="#2A6B6B" fill-opacity="0.55"/>
    <rect x="340" y="135" width="58" height="58" fill="#2A6B6B" fill-opacity="0.18"/>
    <rect x="398" y="135" width="58" height="58" fill="#2A6B6B" fill-opacity="0.18"/>
    <rect x="456" y="135" width="58" height="58" fill="#2A6B6B" fill-opacity="0.18"/>
    <rect x="514" y="135" width="58" height="58" fill="#2A6B6B" fill-opacity="0.18"/>
    <rect x="50" y="193" width="58" height="58" fill="#2A6B6B" fill-opacity="0.18"/>
    <rect x="108" y="193" width="58" height="58" fill="#2A6B6B" fill-opacity="0.18"/>
    <rect x="166" y="193" width="58" height="58" fill="#2A6B6B" fill-opacity="0.18"/>
    <rect x="224" y="193" width="58" height="58" fill="#2A6B6B" fill-opacity="0.18"/>
    <rect x="282" y="193" width="58" height="58" fill="#2A6B6B" fill-opacity="0.18"/>
    <rect x="340" y="193" width="58" height="58" fill="#2A6B6B" fill-opacity="0.18"/>
    <rect x="398" y="193" width="58" height="58" fill="#2A6B6B" fill-opacity="0.18"/>
    <rect x="456" y="193" width="58" height="58" fill="#2A6B6B" fill-opacity="0.18"/>
    <rect x="514" y="193" width="58" height="58" fill="#2A6B6B" fill-opacity="0.18"/>
    <rect x="50" y="251" width="58" height="58" fill="#2A6B6B" fill-opacity="0.55"/>
    <rect x="108" y="251" width="58" height="58" fill="#2A6B6B" fill-opacity="0.55"/>
    <rect x="166" y="251" width="58" height="58" fill="#2A6B6B" fill-opacity="0.55"/>
    <rect x="224" y="251" width="58" height="58" fill="#2A6B6B" fill-opacity="0.18"/>
    <rect x="282" y="251" width="58" height="58" fill="#2A6B6B" fill-opacity="0.18"/>
    <rect x="340" y="251" width="58" height="58" fill="#2A6B6B" fill-opacity="0.18"/>
    <rect x="398" y="251" width="58" height="58" fill="#2A6B6B" fill-opacity="0.18"/>
    <rect x="456" y="251" width="58" height="58" fill="#2A6B6B" fill-opacity="0.55"/>
    <rect x="514" y="251" width="58" height="58" fill="#2A6B6B" fill-opacity="0.18"/>
    <rect x="50" y="309" width="58" height="58" fill="#2A6B6B" fill-opacity="0.18"/>
    <rect x="108" y="309" width="58" height="58" fill="#2A6B6B" fill-opacity="0.18"/>
    <rect x="166" y="309" width="58" height="58" fill="#2A6B6B" fill-opacity="0.18"/>
    <rect x="224" y="309" width="58" height="58" fill="#2A6B6B" fill-opacity="0.55"/>
    <rect x="282" y="309" width="58" height="58" fill="#2A6B6B" fill-opacity="0.18"/>
    <rect x="340" y="309" width="58" height="58" fill="#2A6B6B" fill-opacity="0.18"/>
    <rect x="398" y="309" width="58" height="58" fill="#2A6B6B" fill-opacity="0.18"/>
    <rect x="456" y="309" width="58" height="58" fill="#2A6B6B" fill-opacity="0.18"/>
    <rect x="514" y="309" width="58" height="58" fill="#2A6B6B" fill-opacity="0.18"/>
    <rect x="50" y="367" width="58" height="58" fill="#2A6B6B" fill-opacity="0.55"/>
    <rect x="108" y="367" width="58" height="58" fill="#2A6B6B" fill-opacity="0.18"/>
    <rect x="166" y="367" width="58" height="58" fill="#2A6B6B" fill-opacity="0.18"/>
    <rect x="224" y="367" width="58" height="58" fill="#2A6B6B" fill-opacity="0.18"/>
    <rect x="282" y="367" width="58" height="58" fill="#2A6B6B" fill-opacity="0.18"/>
    <rect x="340" y="367" width="58" height="58" fill="#2A6B6B" fill-opacity="0.18"/>
    <rect x="398" y="367" width="58" height="58" fill="#2A6B6B" fill-opacity="0.18"/>
    <rect x="456" y="367" width="58" height="58" fill="#2A6B6B" fill-opacity="0.18"/>
    <rect x="514" y="367" width="58" height="58" fill="#2A6B6B" fill-opacity="0.55"/>
    <rect x="50" y="425" width="58" height="58" fill="#2A6B6B" fill-opacity="0.55"/>
    <rect x="108" y="425" width="58" height="58" fill="#2A6B6B" fill-opacity="0.55"/>
    <rect x="166" y="425" width="58" height="58" fill="#2A6B6B" fill-opacity="0.55"/>
    <rect x="224" y="425" width="58" height="58" fill="#2A6B6B" fill-opacity="0.18"/>
    <rect x="282" y="425" width="58" height="58" fill="#2A6B6B" fill-opacity="0.18"/>
    <rect x="340" y="425" width="58" height="58" fill="#2A6B6B" fill-opacity="0.18"/>
    <rect x="398" y="425" width="58" height="58" fill="#2A6B6B" fill-opacity="0.55"/>
    <rect x="456" y="425" width="58" height="58" fill="#2A6B6B" fill-opacity="0.18"/>
    <rect x="514" y="425" width="58" height="58" fill="#2A6B6B" fill-opacity="0.18"/>
    <rect x="50" y="483" width="58" height="58" fill="#2A6B6B" fill-opacity="0.18"/>
    <rect x="108" y="483" width="58" height="58" fill="#2A6B6B" fill-opacity="0.18"/>
    <rect x="166" y="483" width="58" height="58" fill="#2A6B6B" fill-opacity="0.18"/>
    <rect x="224" y="483" width="58" height="58" fill="#2A6B6B" fill-opacity="0.55"/>
    <rect x="282" y="483" width="58" height="58" fill="#2A6B6B" fill-opacity="0.18"/>
    <rect x="340" y="483" width="58" height="58" fill="#2A6B6B" fill-opacity="0.18"/>
    <rect x="398" y="483" width="58" height="58" fill="#2A6B6B" fill-opacity="0.18"/>
    <rect x="456" y="483" width="58" height="58" fill="#2A6B6B" fill-opacity="0.55"/>
    <rect x="514" y="483" width="58" height="58" fill="#2A6B6B" fill-opacity="0.55"/>
    <rect x="50" y="541" width="58" height="58" fill="#2A6B6B" fill-opacity="0.18"/>
    <rect x="108" y="541" width="58" height="58" fill="#2A6B6B" fill-opacity="0.18"/>
    <rect x="166" y="541" width="58" height="58" fill="#2A6B6B" fill-opacity="0.18"/>
    <rect x="224" y="541" width="58" height="58" fill="#2A6B6B" fill-opacity="0.18"/>
    <rect x="282" y="541" width="58" height="58" fill="#2A6B6B" fill-opacity="0.18"/>
    <rect x="340" y="541" width="58" height="58" fill="#2A6B6B" fill-opacity="0.55"/>
    <rect x="398" y="541" width="58" height="58" fill="#2A6B6B" fill-opacity="0.55"/>
    <rect x="456" y="541" width="58" height="58" fill="#2A6B6B" fill-opacity="0.18"/>
    <rect x="514" y="541" width="58" height="58" fill="#2A6B6B" fill-opacity="0.18"/>
    <line x1="50" y1="77" x2="50" y2="599" stroke="#1A1714" stroke-opacity="0.22" stroke-width="1"/>
    <line x1="50" y1="77" x2="572" y2="77" stroke="#1A1714" stroke-opacity="0.22" stroke-width="1"/>
    <line x1="108" y1="77" x2="108" y2="599" stroke="#1A1714" stroke-opacity="0.22" stroke-width="1"/>
    <line x1="50" y1="135" x2="572" y2="135" stroke="#1A1714" stroke-opacity="0.22" stroke-width="1"/>
    <line x1="166" y1="77" x2="166" y2="599" stroke="#1A1714" stroke-opacity="0.22" stroke-width="1"/>
    <line x1="50" y1="193" x2="572" y2="193" stroke="#1A1714" stroke-opacity="0.22" stroke-width="1"/>
    <line x1="224" y1="77" x2="224" y2="599" stroke="#1A1714" stroke-opacity="0.22" stroke-width="1"/>
    <line x1="50" y1="251" x2="572" y2="251" stroke="#1A1714" stroke-opacity="0.22" stroke-width="1"/>
    <line x1="282" y1="77" x2="282" y2="599" stroke="#1A1714" stroke-opacity="0.22" stroke-width="1"/>
    <line x1="50" y1="309" x2="572" y2="309" stroke="#1A1714" stroke-opacity="0.22" stroke-width="1"/>
    <line x1="340" y1="77" x2="340" y2="599" stroke="#1A1714" stroke-opacity="0.22" stroke-width="1"/>
    <line x1="50" y1="367" x2="572" y2="367" stroke="#1A1714" stroke-opacity="0.22" stroke-width="1"/>
    <line x1="398" y1="77" x2="398" y2="599" stroke="#1A1714" stroke-opacity="0.22" stroke-width="1"/>
    <line x1="50" y1="425" x2="572" y2="425" stroke="#1A1714" stroke-opacity="0.22" stroke-width="1"/>
    <line x1="456" y1="77" x2="456" y2="599" stroke="#1A1714" stroke-opacity="0.22" stroke-width="1"/>
    <line x1="50" y1="483" x2="572" y2="483" stroke="#1A1714" stroke-opacity="0.22" stroke-width="1"/>
    <line x1="514" y1="77" x2="514" y2="599" stroke="#1A1714" stroke-opacity="0.22" stroke-width="1"/>
    <line x1="50" y1="541" x2="572" y2="541" stroke="#1A1714" stroke-opacity="0.22" stroke-width="1"/>
    <line x1="572" y1="77" x2="572" y2="599" stroke="#1A1714" stroke-opacity="0.22" stroke-width="1"/>
    <line x1="50" y1="599" x2="572" y2="599" stroke="#1A1714" stroke-opacity="0.22" stroke-width="1"/>
    <line x1="50" y1="77" x2="50" y2="599" stroke="#1A1714" stroke-width="3"/>
    <line x1="50" y1="77" x2="572" y2="77" stroke="#1A1714" stroke-width="3"/>
    <line x1="224" y1="77" x2="224" y2="599" stroke="#1A1714" stroke-width="3"/>
    <line x1="50" y1="251" x2="572" y2="251" stroke="#1A1714" stroke-width="3"/>
    <line x1="398" y1="77" x2="398" y2="599" stroke="#1A1714" stroke-width="3"/>
    <line x1="50" y1="425" x2="572" y2="425" stroke="#1A1714" stroke-width="3"/>
    <line x1="572" y1="77" x2="572" y2="599" stroke="#1A1714" stroke-width="3"/>
    <line x1="50" y1="599" x2="572" y2="599" stroke="#1A1714" stroke-width="3"/>
  </g>
  <!-- RIGHT GRID: low entropy, mostly resolved deep cells -->
  <g>
    <rect x="628" y="77" width="58" height="58" fill="#1A4F4F"/>
    <rect x="686" y="77" width="58" height="58" fill="#1A4F4F"/>
    <rect x="744" y="77" width="58" height="58" fill="#1A4F4F"/>
    <rect x="802" y="77" width="58" height="58" fill="#1A4F4F"/>
    <rect x="860" y="77" width="58" height="58" fill="#1A4F4F"/>
    <rect x="918" y="77" width="58" height="58" fill="#2A6B6B" fill-opacity="0.55"/>
    <rect x="976" y="77" width="58" height="58" fill="#1A4F4F"/>
    <rect x="1034" y="77" width="58" height="58" fill="#1A4F4F"/>
    <rect x="1092" y="77" width="58" height="58" fill="#1A4F4F"/>
    <rect x="628" y="135" width="58" height="58" fill="#2A6B6B" fill-opacity="0.55"/>
    <rect x="686" y="135" width="58" height="58" fill="#1A4F4F"/>
    <rect x="744" y="135" width="58" height="58" fill="#1A4F4F"/>
    <rect x="802" y="135" width="58" height="58" fill="#2A6B6B" fill-opacity="0.55"/>
    <rect x="860" y="135" width="58" height="58" fill="#1A4F4F"/>
    <rect x="918" y="135" width="58" height="58" fill="#1A4F4F"/>
    <rect x="976" y="135" width="58" height="58" fill="#2A6B6B" fill-opacity="0.55"/>
    <rect x="1034" y="135" width="58" height="58" fill="#1A4F4F"/>
    <rect x="1092" y="135" width="58" height="58" fill="#1A4F4F"/>
    <rect x="628" y="193" width="58" height="58" fill="#1A4F4F"/>
    <rect x="686" y="193" width="58" height="58" fill="#1A4F4F"/>
    <rect x="744" y="193" width="58" height="58" fill="#1A4F4F"/>
    <rect x="802" y="193" width="58" height="58" fill="#1A4F4F"/>
    <rect x="860" y="193" width="58" height="58" fill="#1A4F4F"/>
    <rect x="918" y="193" width="58" height="58" fill="#1A4F4F"/>
    <rect x="976" y="193" width="58" height="58" fill="#1A4F4F"/>
    <rect x="1034" y="193" width="58" height="58" fill="#1A4F4F"/>
    <rect x="1092" y="193" width="58" height="58" fill="#1A4F4F"/>
    <rect x="628" y="251" width="58" height="58" fill="#1A4F4F"/>
    <rect x="686" y="251" width="58" height="58" fill="#1A4F4F"/>
    <rect x="744" y="251" width="58" height="58" fill="#1A4F4F"/>
    <rect x="802" y="251" width="58" height="58" fill="#1A4F4F"/>
    <rect x="860" y="251" width="58" height="58" fill="#2A6B6B" fill-opacity="0.55"/>
    <rect x="918" y="251" width="58" height="58" fill="#1A4F4F"/>
    <rect x="976" y="251" width="58" height="58" fill="#1A4F4F"/>
    <rect x="1034" y="251" width="58" height="58" fill="#1A4F4F"/>
    <rect x="1092" y="251" width="58" height="58" fill="#1A4F4F"/>
    <rect x="628" y="309" width="58" height="58" fill="#2A6B6B" fill-opacity="0.55"/>
    <rect x="686" y="309" width="58" height="58" fill="#1A4F4F"/>
    <rect x="744" y="309" width="58" height="58" fill="#2A6B6B" fill-opacity="0.55"/>
    <rect x="802" y="309" width="58" height="58" fill="#1A4F4F"/>
    <rect x="860" y="309" width="58" height="58" fill="#1A4F4F"/>
    <rect x="918" y="309" width="58" height="58" fill="#1A4F4F"/>
    <rect x="976" y="309" width="58" height="58" fill="#1A4F4F"/>
    <rect x="1034" y="309" width="58" height="58" fill="#1A4F4F"/>
    <rect x="1092" y="309" width="58" height="58" fill="#1A4F4F"/>
    <rect x="628" y="367" width="58" height="58" fill="#1A4F4F"/>
    <rect x="686" y="367" width="58" height="58" fill="#1A4F4F"/>
    <rect x="744" y="367" width="58" height="58" fill="#1A4F4F"/>
    <rect x="802" y="367" width="58" height="58" fill="#1A4F4F"/>
    <rect x="860" y="367" width="58" height="58" fill="#1A4F4F"/>
    <rect x="918" y="367" width="58" height="58" fill="#1A4F4F"/>
    <rect x="976" y="367" width="58" height="58" fill="#1A4F4F"/>
    <rect x="1034" y="367" width="58" height="58" fill="#1A4F4F"/>
    <rect x="1092" y="367" width="58" height="58" fill="#1A4F4F"/>
    <rect x="628" y="425" width="58" height="58" fill="#1A4F4F"/>
    <rect x="686" y="425" width="58" height="58" fill="#1A4F4F"/>
    <rect x="744" y="425" width="58" height="58" fill="#1A4F4F"/>
    <rect x="802" y="425" width="58" height="58" fill="#1A4F4F"/>
    <rect x="860" y="425" width="58" height="58" fill="#1A4F4F"/>
    <rect x="918" y="425" width="58" height="58" fill="#1A4F4F"/>
    <rect x="976" y="425" width="58" height="58" fill="#1A4F4F"/>
    <rect x="1034" y="425" width="58" height="58" fill="#1A4F4F"/>
    <rect x="1092" y="425" width="58" height="58" fill="#2A6B6B" fill-opacity="0.18"/>
    <rect x="628" y="483" width="58" height="58" fill="#2A6B6B" fill-opacity="0.55"/>
    <rect x="686" y="483" width="58" height="58" fill="#1A4F4F"/>
    <rect x="744" y="483" width="58" height="58" fill="#1A4F4F"/>
    <rect x="802" y="483" width="58" height="58" fill="#1A4F4F"/>
    <rect x="860" y="483" width="58" height="58" fill="#1A4F4F"/>
    <rect x="918" y="483" width="58" height="58" fill="#1A4F4F"/>
    <rect x="976" y="483" width="58" height="58" fill="#1A4F4F"/>
    <rect x="1034" y="483" width="58" height="58" fill="#1A4F4F"/>
    <rect x="1092" y="483" width="58" height="58" fill="#1A4F4F"/>
    <rect x="628" y="541" width="58" height="58" fill="#1A4F4F"/>
    <rect x="686" y="541" width="58" height="58" fill="#1A4F4F"/>
    <rect x="744" y="541" width="58" height="58" fill="#1A4F4F"/>
    <rect x="802" y="541" width="58" height="58" fill="#1A4F4F"/>
    <rect x="860" y="541" width="58" height="58" fill="#1A4F4F"/>
    <rect x="918" y="541" width="58" height="58" fill="#2A6B6B" fill-opacity="0.18"/>
    <rect x="976" y="541" width="58" height="58" fill="#1A4F4F"/>
    <rect x="1034" y="541" width="58" height="58" fill="#1A4F4F"/>
    <rect x="1092" y="541" width="58" height="58" fill="#2A6B6B" fill-opacity="0.55"/>
    <line x1="628" y1="77" x2="628" y2="599" stroke="#1A1714" stroke-opacity="0.22" stroke-width="1"/>
    <line x1="628" y1="77" x2="1150" y2="77" stroke="#1A1714" stroke-opacity="0.22" stroke-width="1"/>
    <line x1="686" y1="77" x2="686" y2="599" stroke="#1A1714" stroke-opacity="0.22" stroke-width="1"/>
    <line x1="628" y1="135" x2="1150" y2="135" stroke="#1A1714" stroke-opacity="0.22" stroke-width="1"/>
    <line x1="744" y1="77" x2="744" y2="599" stroke="#1A1714" stroke-opacity="0.22" stroke-width="1"/>
    <line x1="628" y1="193" x2="1150" y2="193" stroke="#1A1714" stroke-opacity="0.22" stroke-width="1"/>
    <line x1="802" y1="77" x2="802" y2="599" stroke="#1A1714" stroke-opacity="0.22" stroke-width="1"/>
    <line x1="628" y1="251" x2="1150" y2="251" stroke="#1A1714" stroke-opacity="0.22" stroke-width="1"/>
    <line x1="860" y1="77" x2="860" y2="599" stroke="#1A1714" stroke-opacity="0.22" stroke-width="1"/>
    <line x1="628" y1="309" x2="1150" y2="309" stroke="#1A1714" stroke-opacity="0.22" stroke-width="1"/>
    <line x1="918" y1="77" x2="918" y2="599" stroke="#1A1714" stroke-opacity="0.22" stroke-width="1"/>
    <line x1="628" y1="367" x2="1150" y2="367" stroke="#1A1714" stroke-opacity="0.22" stroke-width="1"/>
    <line x1="976" y1="77" x2="976" y2="599" stroke="#1A1714" stroke-opacity="0.22" stroke-width="1"/>
    <line x1="628" y1="425" x2="1150" y2="425" stroke="#1A1714" stroke-opacity="0.22" stroke-width="1"/>
    <line x1="1034" y1="77" x2="1034" y2="599" stroke="#1A1714" stroke-opacity="0.22" stroke-width="1"/>
    <line x1="628" y1="483" x2="1150" y2="483" stroke="#1A1714" stroke-opacity="0.22" stroke-width="1"/>
    <line x1="1092" y1="77" x2="1092" y2="599" stroke="#1A1714" stroke-opacity="0.22" stroke-width="1"/>
    <line x1="628" y1="541" x2="1150" y2="541" stroke="#1A1714" stroke-opacity="0.22" stroke-width="1"/>
    <line x1="1150" y1="77" x2="1150" y2="599" stroke="#1A1714" stroke-opacity="0.22" stroke-width="1"/>
    <line x1="628" y1="599" x2="1150" y2="599" stroke="#1A1714" stroke-opacity="0.22" stroke-width="1"/>
    <line x1="628" y1="77" x2="628" y2="599" stroke="#1A1714" stroke-width="3"/>
    <line x1="628" y1="77" x2="1150" y2="77" stroke="#1A1714" stroke-width="3"/>
    <line x1="802" y1="77" x2="802" y2="599" stroke="#1A1714" stroke-width="3"/>
    <line x1="628" y1="251" x2="1150" y2="251" stroke="#1A1714" stroke-width="3"/>
    <line x1="976" y1="77" x2="976" y2="599" stroke="#1A1714" stroke-width="3"/>
    <line x1="628" y1="425" x2="1150" y2="425" stroke="#1A1714" stroke-width="3"/>
    <line x1="1150" y1="77" x2="1150" y2="599" stroke="#1A1714" stroke-width="3"/>
    <line x1="628" y1="599" x2="1150" y2="599" stroke="#1A1714" stroke-width="3"/>
  </g>
</svg>
